# xmcd
#
# Track frame offsets: 
#        187
#        14390
#        30175
#        46932
#        62590
#        80597
#        92235
#        107697
#        122600
#        135400
#
# Disc length: 2132 seconds
#
# Revision: 2
# Processed by: cddbd v1.5.2PL0 Copyright (c) Steve Scherf et al.
# Submitted via: ExactAudioCopy v1.0b2
#
DISCID=7208520a
DTITLE=Various Artist - Country Classics - Vol. 8
DYEAR=1988
DGENRE=Country
TTITLE0=George Strait - Ocean Front Property
TTITLE1=Reba McEntire - What Am I Gonna Do About You
TTITLE2=Waylon Jennings - Rose In Paradise
TTITLE3=Oak Ridge Boys - Come On In (You Did The Best You Could Do)
TTITLE4=Nanci Griffith - Lone Star State Of Mind
TTITLE5=Steve Earle - Guitar Town
TTITLE6=Nicollete Larson (with Steve Wariner) - That's How You Know Wh
TTITLE6=en Love's Right
TTITLE7=John Schneider - Take The Long Way Home
TTITLE8=Patty Loveless - I Did
TTITLE9=Ray Stevens - Southern Air
EXTD=
EXTT0=
EXTT1=
EXTT2=
EXTT3=
EXTT4=
EXTT5=
EXTT6=
EXTT7=
EXTT8=
EXTT9=
PLAYORDER=
